<?xml version="1.0" encoding="UTF-8"?><svg id="Layer_1" xmlns="http://www.w3.org/2000/svg" viewBox="0 0 26.72 24.28"><defs><style>.cls-1{fill:#fff;stroke-width:0px;}</style></defs><circle class="cls-1" cx="3.48" cy="10.78" r="2.36"/><circle class="cls-1" cx="11.94" cy="12.58" r="2.36"/><circle class="cls-1" cx="16.22" cy="4.92" r="2.36"/><circle class="cls-1" cx="7.86" cy="20.17" r="2.36"/><polygon class="cls-1" points="11.22 4.18 11.22 19.41 4.19 19.45 4.19 .72 .34 .72 .34 2.11 2.8 2.11 2.8 20.85 12.49 20.8 12.61 20.8 12.61 5.58 19.85 5.63 19.85 9.75 21.25 9.75 21.25 4.23 11.22 4.18"/><path class="cls-1" d="m17.96,11.19c-.14.05-.22.18-.2.32l.16,1c-.25.14-.49.3-.71.48l-.86-.54c-.12-.08-.28-.05-.38.06l-.45.51c-.09.11-.1.27,0,.38l.64.78c-.15.24-.28.5-.38.77l-1.01-.03c-.14,0-.27.09-.3.24l-.13.66c-.03.14.05.28.18.33l.95.36c0,.28,0,.57.05.85l-.89.48c-.13.07-.19.22-.14.35l.22.64c.05.14.18.22.32.2l1-.16c.14.25.3.49.48.71l-.54.86c-.08.12-.05.28.06.38l.51.45c.11.09.27.1.38,0l.78-.64c.24.15.5.28.77.38l-.03,1.01c0,.14.1.27.24.3l.66.13c.14.03.28-.05.33-.18l.36-.95c.28,0,.57,0,.86-.05l.48.89c.07.13.22.19.35.14l.64-.22c.14-.05.22-.18.2-.32l-.16-1c.25-.14.49-.3.71-.48l.86.54c.12.08.28.05.38-.06l.45-.51c.09-.11.1-.27,0-.38l-.64-.78c.15-.24.28-.5.38-.77l1.01.03c.14,0,.27-.1.3-.24l.13-.66c.03-.14-.05-.28-.18-.33l-.95-.36c0-.28,0-.57-.05-.86l.89-.48c.13-.07.19-.22.14-.35l-.22-.64c-.05-.14-.18-.22-.32-.2l-1,.16c-.14-.25-.3-.49-.48-.71l.54-.86c.08-.12.05-.28-.06-.38l-.51-.45c-.11-.09-.27-.1-.38,0l-.78.64c-.24-.15-.5-.28-.77-.38l.03-1.01c0-.14-.1-.27-.24-.3l-.66-.13c-.14-.03-.28.05-.33.18l-.36.95c-.28,0-.57,0-.86.05l-.48-.89c-.07-.13-.22-.19-.35-.14l-.64.22Zm.53,2.35l.58,1.72c-.56.45-.83,1.22-.58,1.94.03.1.08.2.13.29l-1.2,1.36c-.26-.32-.46-.68-.6-1.09-.56-1.66.18-3.42,1.67-4.22Zm1.11-.37c1.67-.27,3.32.69,3.88,2.35.14.41.19.83.18,1.23l-1.77-.36c-.01-.11-.04-.21-.07-.31-.24-.72-.92-1.17-1.64-1.19l-.58-1.72Zm.36,2.91c.31-.11.64.05.74.37s-.05.64-.37.74-.64-.05-.74-.37.05-.64.37-.74Zm-.46,2.18c.38.15.8.18,1.21.04s.73-.42.94-.77l1.79.36c-.36.94-1.13,1.72-2.16,2.07s-2.12.19-2.98-.34l1.21-1.37Z"/></svg>