<svg xmlns="http://www.w3.org/2000/svg" viewBox="0 0 24 24"><defs><style>.cls-1{fill:none;}.cls-2{fill:#fff;}</style></defs><title>user_profile</title><g id="Layer_2" data-name="Layer 2"><g id="Layer_1-2" data-name="Layer 1"><rect class="cls-1" width="24" height="24"/><path class="cls-2" d="M19.78,22.9s0,0,0,0a2.19,2.19,0,0,0,.12-.33l0-.08A2.2,2.2,0,0,0,20,22V2A2.05,2.05,0,0,0,19.66.88a2.31,2.31,0,0,0-.54-.54A2.05,2.05,0,0,0,18,0H6A2.05,2.05,0,0,0,4.88.34a2.31,2.31,0,0,0-.54.54A2.05,2.05,0,0,0,4,2V22a2.2,2.2,0,0,0,0,.44l0,.08a2.19,2.19,0,0,0,.12.33s0,0,0,0a1.85,1.85,0,0,0,.21.33h0A2,2,0,0,0,6,24H18a2,2,0,0,0,1.56-.76h0A1.85,1.85,0,0,0,19.78,22.9ZM6,10V8H16v2Zm9,6.5A3.28,3.28,0,0,1,12,20a3.28,3.28,0,0,1-3-3.5A3.28,3.28,0,0,1,12,13,3.28,3.28,0,0,1,15,16.5ZM6,5h7V7H6Zm7.5-4a.5.5,0,0,1,0,1h-3a.5.5,0,0,1,0-1ZM18,23H6a1,1,0,0,1-1-1v-.44a10.13,10.13,0,0,1,4.07-1.35,2.21,2.21,0,0,1,1.51.36,2.56,2.56,0,0,0,2.84,0,2.21,2.21,0,0,1,1.51-.36A10.13,10.13,0,0,1,19,21.56V22A1,1,0,0,1,18,23Z"/></g></g></svg>