<svg id="Layer_1" data-name="Layer 1" xmlns="http://www.w3.org/2000/svg" viewBox="0 0 30 30"><defs><style>.cls-1{fill:#26476d;}.cls-2{fill:#FFFFFF;}</style></defs><circle cx="15" cy="15" r="11.51"/><path class="cls-2" d="M7.81,10.83c0,.44.94.61,1.27.88s.81-.25,1.25-.32a5.75,5.75,0,0,0,1.31-.27c.59-.23.8,1.13,1.42,1.17s1.71-.67,2.09,0,.77.67.58,1.19-.79,1.79-1.36,1.9c-2.08.41-1.2,2.08-1.77,3a5.33,5.33,0,0,0-.79,2,4.41,4.41,0,0,1-.15,1,.7.7,0,0,1-.79.48c-.6-.94-1.33-.38-.79-4.55a.74.74,0,0,0-.42-.54c-1.68-.27-1-1.06-1.33-1.87a1,1,0,0,0-.13-.25,1,1,0,0,0-.27-.28c-.18-.18-.16-.45-.25-.7s1.07-1.07.55-1.48a5.79,5.79,0,0,0-1.36.35,1.14,1.14,0,0,1-1.06-.88,6.33,6.33,0,0,1,.41-1.41C6.83,8.39,8.31,7.79,9.81,6.7c.6-.39.46.23.52.57s.38.71.25,1.18a4,4,0,0,1-.67,1.21C9.56,9.93,7.68,10.1,7.81,10.83Z"/><path class="cls-2" d="M18.36,5.91c-.44,0-.69,1-.73,1.48s.5.73,1,.77.83,0,1,.52c.28.86.48.44,0,1s-1.29.85-1.43,1.64a2.08,2.08,0,0,0,1.58,2.49h.06c.27,0,1-.29,1.27-.29.63,0,.26.42.86.56s.9.65.46,1.46-.23,1.17,0,2.09a2.68,2.68,0,0,0,.41,1.46c.28.25,1.28.54,1.61.21a12.6,12.6,0,0,0,1.15-2.4,11.26,11.26,0,0,0,.25-1.63,7.52,7.52,0,0,0,0-1.5,14.46,14.46,0,0,0-.25-1.44,9.29,9.29,0,0,0-.9-2.25c-.38-.62-.42-1.21-1.15-1.23h-.87c-.38,0-.25-.25-.25-.35-.15-.73-.54-1-1.21-1.31L20.52,7C19.86,6.93,19,5.79,18.36,5.91Z"/><path class="cls-2" d="M13.73,23.34a2.5,2.5,0,0,1,1.54-.46,1.09,1.09,0,0,0,.44,0,.9.9,0,0,0,.33-.25,3.12,3.12,0,0,1,1.59-1,2.07,2.07,0,0,1,2,.67c.12.29-.21.56-.4.83a2.06,2.06,0,0,0-.29,1.35.81.81,0,0,1,0,.38.58.58,0,0,1-.19.19,4.16,4.16,0,0,1-4.27.39,3.24,3.24,0,0,0-1-.33c-.32,0-.57,0-.71-.29S13.29,23.61,13.73,23.34Z"/></svg>