<svg id="Layer_1" data-name="Layer 1" xmlns="http://www.w3.org/2000/svg" viewBox="0 0 439.51 162.14"><defs><style>.cls-1{fill:#fff;}.cls-2{fill:#26476d;}.cls-3{fill:#fff;}</style></defs><path id="i" class="cls-1" d="M311.9,110a1.17,1.17,0,0,0-.44-1l-4.41-3.55a2.44,2.44,0,0,1-.59-1c0-.38.44-.51.88-.51h14.11a.69.69,0,0,1,.74.76v62.72c0,.5,0,.88.29,1.14l4.55,4.43a1.52,1.52,0,0,1,.59.89c0,.38-.29.5-.88.5h-19.4c-.44,0-.88-.12-.88-.5a1.57,1.57,0,0,1,.59-.89l4.56-4.43c.29-.26.29-.64.29-1.14Z" transform="translate(-50.92 -42.43)"/><path id="n2" class="cls-1" d="M344.81,108.31h.3c2.64-2.41,5.14-4.44,10.14-4.44,7.35,0,12.19,4.44,12.19,12.92v50.56c0,.5,0,.88.3,1.14l4.55,4.43a1.52,1.52,0,0,1,.59.89c0,.38-.44.5-.88.5H352.6c-.58,0-.88-.12-.88-.5a1.57,1.57,0,0,1,.59-.89l4.55-4.43c.3-.26.3-.64.3-1.14V116.67c0-4.82-1.62-7.35-5-7.35-3.53,0-7.35,4.18-7.35,11v47a2.43,2.43,0,0,0,.15,1.14l4.56,4.43a1.3,1.3,0,0,1,.73.89c0,.38-.44.5-.88.5H330c-.59,0-.88-.12-.88-.5a1.07,1.07,0,0,1,.59-.89l4.56-4.43c.29-.26.29-.64.29-1.14V110a1.17,1.17,0,0,0-.44-1l-4.41-3.55a2.33,2.33,0,0,1-.59-1c0-.38.44-.51.88-.51h14.11c.59,0,.73.26.73.76Z" transform="translate(-50.92 -42.43)"/><path id="d" class="cls-1" d="M400.8,85.37a1,1,0,0,0-.59-1L396,80.69a1.34,1.34,0,0,1-.73-.89c0-.38.44-.51,1-.51h14c.58,0,.88.26.88.76v87.3a2.59,2.59,0,0,0,.14,1.14l4.56,4.43a1.32,1.32,0,0,1,.74.89c0,.38-.45.5-1,.5H401.83c-.59,0-1-.25-1-.5V169.5h-.29c-2.5,2.53-5.15,4.81-9.85,4.81-6.46,0-13.22-3.16-13.22-38.89,0-28.25,7.34-31.55,13.37-31.55,4.26,0,7.2,2,9.7,4.44h.29Zm0,33.45c0-6.21-4.41-9.5-6.46-9.5-3.68,0-5.44,2.66-5.44,26.1,0,30.53,1.47,33.45,5.29,33.45,3.53,0,6.61-3.93,6.61-10.14Z" transform="translate(-50.92 -42.43)"/><path id="e" class="cls-1" d="M432.54,146.82c0,16,2.5,22.05,9.26,22.05,4.85,0,7.2-2,10.29-6a1.27,1.27,0,0,1,1-.63c.44,0,.58.25.44.76-1.77,6.08-6.32,11.27-13.52,11.27-13.38,0-19-11.4-19-39.78,0-19.26,6.47-30.66,16.75-30.66,8.53,0,15.87,5.32,15.87,23.82v7.85c0,.89-.29,1.53-1.32,1.53H432.54Zm10.88-14.57V119.58c0-6.71-2.06-10.26-5.59-10.26-3.82,0-5.29,3.55-5.29,10.26v12.67Z" transform="translate(-50.92 -42.43)"/><path id="r2" class="cls-1" d="M474,167.35a2.43,2.43,0,0,0,.15,1.14l5,4.43a1,1,0,0,1,.59.89c0,.38-.29.5-.88.5H459.14c-.59,0-.88-.12-.88-.5a1,1,0,0,1,.59-.89l4.55-4.43c.29-.26.29-.64.29-1.14V110a1,1,0,0,0-.58-1l-4.26-3.55a1.41,1.41,0,0,1-.59-1c0-.38.29-.51.88-.51h14.11a.68.68,0,0,1,.73.76v4.31h.3c2.35-2.53,4.84-5.07,8.22-5.07,4.85,0,7.94,6.72,7.94,10.77,0,.63-.15,1.14-.74,1.14s-.88-.51-1.17-1.14a8.07,8.07,0,0,0-7.64-4.81c-4.26,0-6.91,5.19-6.91,11.65Z" transform="translate(-50.92 -42.43)"/><path id="dot" class="cls-2" d="M311.46,86c0-3.42,2.35-6.72,5.44-6.72s5.29,3.3,5.29,6.72-2.35,6.71-5.29,6.71-5.44-3.42-5.44-6.71" transform="translate(-50.92 -42.43)"/><path id="f" class="cls-2" d="M314.6,42.46c-7-.28-29.28,1.31-40.28,12a20.33,20.33,0,0,0-6.4,15.16c0,2.22.43,17.73,1,37.37l-8,.19a5.25,5.25,0,0,0,.25,10.49l8.08-.19c1.13,35.47,2.77,78.36,4.19,83.29a5.2,5.2,0,0,0,6.43,3.56,5.29,5.29,0,0,0,3.66-6.46l0,.07c-1.05-4.51-2.67-45.55-3.82-80.7L296,116.9a5.25,5.25,0,1,0-.24-10.5l-16.39.39c-.52-16.73-.89-30.92-1-37.3A9.67,9.67,0,0,1,281.66,62c7.65-7.46,25.53-9.35,32.51-9.06a5.25,5.25,0,1,0,.43-10.49Z" transform="translate(-50.92 -42.43)"/><path id="l" class="cls-3" d="M245.36,167.57c0,.51,0,.9.3,1.16l4.72,4.49a1.59,1.59,0,0,1,.6.9c0,.38-.3.51-.91.51H230c-.45,0-.91-.13-.91-.51a1.56,1.56,0,0,1,.61-.9l4.71-4.49c.31-.26.31-.65.31-1.16V84.46a1.18,1.18,0,0,0-.46-1L229.7,79.7a1.53,1.53,0,0,1-.61-.9c0-.38.46-.51.91-.51h14.6a.7.7,0,0,1,.76.77Z" transform="translate(-50.92 -42.43)"/><path id="o" class="cls-3" d="M227.59,136.37c0,31.29-8,38.26-17.5,38.26s-17.34-7-17.34-38.26c0-25,7.93-32.18,17.34-32.18S227.59,111.41,227.59,136.37Zm-11.47,0c0-22.05-2.05-26.73-6-26.73-3.82,0-5.87,4.68-5.87,26.73,0,28.51,2.05,32.82,5.87,32.82C214.07,169.19,216.12,164.88,216.12,136.37Z" transform="translate(-50.92 -42.43)"/><path id="r1" class="cls-1" d="M174.79,167.67a2.43,2.43,0,0,0,.15,1.14l5,4.43a1.07,1.07,0,0,1,.59.89c0,.38-.29.5-.88.5H160c-.59,0-.88-.12-.88-.5a1.05,1.05,0,0,1,.58-.89l4.56-4.43c.29-.26.29-.64.29-1.14v-57.4a1,1,0,0,0-.58-1l-4.27-3.55a1.43,1.43,0,0,1-.58-1c0-.38.29-.51.88-.51h14.11a.68.68,0,0,1,.73.76v4.31h.29c2.35-2.53,4.85-5.07,8.23-5.07,4.85,0,7.94,6.72,7.94,10.77,0,.63-.15,1.14-.74,1.14s-.88-.51-1.17-1.14a8.07,8.07,0,0,0-7.64-4.81c-4.27,0-6.91,5.19-6.91,11.65Z" transform="translate(-50.92 -42.43)"/><path id="t" class="cls-1" d="M148.93,164.62c0,2.67,1.47,4.57,3.53,4.57a6.33,6.33,0,0,0,4.55-2.66,1.56,1.56,0,0,1,.88-.51.55.55,0,0,1,.44.76c-1,3.55-4,7.85-10.14,7.85s-9.55-2.4-9.55-12.79V110.53a2.21,2.21,0,0,0-.44-1.65l-4.26-3.55c-.3-.25-.74-.5-.74-.76s.59-.76,2.06-.88c6.47-1,7.2-10.65,7.2-15.72a1.11,1.11,0,0,1,1.18-1.14h4.41c.58,0,.88.26.88.89v14.57c0,.63.15,1.14,1.17,1.14h3.38c.74,0,.89.89,0,1.52l-3.38,3.3a4.39,4.39,0,0,0-1.17,2.28Z" transform="translate(-50.92 -42.43)"/><path id="a" class="cls-1" d="M125.86,166c0,1.65.58,3.17,1.91,3.17A5.37,5.37,0,0,0,132,167c.29-.25.44-.5.73-.5s.44.25.44.63c-.58,3.67-4,7.47-7.64,7.47-4.55,0-6.9-2.53-8.67-4.81-2.35,2.28-6.17,4.81-10.14,4.81C101,174.63,94,171.47,94,154.11c0-14.19,2.5-18,18.66-29.14,2.94-2,2.94-3.17,2.94-8.36,0-5.58-1.47-7-6.17-7-4.26,0-10.43,2.91-13.08,5.19a1.78,1.78,0,0,1-1.18.38c-.29,0-.44-.25-.44-.63,0-1.52,8.38-10.39,16.61-10.39,5.29,0,14.55,2.79,14.55,15.84Zm-10.29-37.5h-.29c-8.08,5.95-10.44,10.39-10.44,23.31,0,14.44,1.62,17.36,4.85,17.36s5.88-3.93,5.88-7.48Z" transform="translate(-50.92 -42.43)"/><path id="p" class="cls-3" d="M56.29,110.39a.79.79,0,0,0-.57-.85l-4.22-2.83a1.42,1.42,0,0,1-.58-1c0-.37.3-.49.88-.49H65.73a.66.66,0,0,1,.73.73v3.57h.28c2.48-2.34,5.37-4.3,9.58-4.3,6.25,0,13.21,3.19,13.21,30.61-.29,34.67-7,37.73-13.36,37.73-4.64,0-7.25-2.2-9.43-4.66h-.28v14.26c0,.36,0,.86.13,1l4.51,4.3c.43.37.73.62.73,1s-.44.36-.87.36H51.8c-.58,0-.88-.12-.88-.36s.15-.62.58-1l4.51-4.3c.28-.12.28-.62.28-1Zm10.17,48.82c0,5.15,3.92,9.09,7.11,9.09s4.64-2.82,4.64-32.45c0-22.74-1.74-25.33-5.37-25.33-2,0-6.38,3.19-6.38,9.23Z" transform="translate(-50.92 -42.43)"/></svg>